<svg id="ekqgPWJx8j51" xmlns="http://www.w3.org/2000/svg" xmlns:xlink="http://www.w3.org/1999/xlink" viewBox="0 0 300 300" shape-rendering="geometricPrecision" text-rendering="geometricPrecision"><path d="M83.073639,150.104598c10.49777-10.17157,31.181227-13.432271,65.673566,0c44.190488,14.565735,54.795053,8.358556,65.092284,5.434321" transform="matrix(.825223 0 0 1 27.250435 70.131305)" fill="none" stroke="#313131" stroke-width="17" stroke-linecap="round" stroke-dasharray="0"/><path d="M41.806957,145.145024c23.250861-14.034408,43.607674-23.994024,100.621989-5.663473c43.013406,17.638011,56.059542,12.075704,92.756684,0" transform="matrix(.825223 0 0 1 35.709672 46.514728)" fill="none" stroke="#313131" stroke-width="17" stroke-linecap="round" stroke-dasharray="0"/><path d="M43.446146,161.391999C72.38101,141.161419,95.634923,126.305894,149.999999,150c32.821661,13.913624,55.705172,9.597069,89.266724-12.635877" transform="translate(8.643622 0.321968)" fill="none" stroke="#313131" stroke-width="17" stroke-linecap="round" stroke-dasharray="0"/><path d="M39.64987,164.280233c32.292819-12.263968,51.4745-20.817518,104.853632-4.90382c52.751344,17.07897,62.120414,8.558013,94.960267-7.802746" transform="matrix(.825223 0 0 1 34.83443-47.648441)" fill="none" stroke="#313131" stroke-width="17" stroke-linecap="round" stroke-dasharray="0"/><path d="M78.463267,149.165417c21.290413-7.454754,28.432047-12.010274,65.730314,0c41.561083,13.364996,51.594753,10.403336,72.225534,0" transform="matrix(.825223 0 0 1 31.055034-72.599126)" fill="none" stroke="#313131" stroke-width="17" stroke-linecap="round" stroke-dasharray="0"/></svg>
